<?xml version="1.0" standalone="no"?>
<!DOCTYPE svg PUBLIC "-//W3C//DTD SVG 20010904//EN"
 "http://www.w3.org/TR/2001/REC-SVG-20010904/DTD/svg10.dtd">
<svg version="1.0" xmlns="http://www.w3.org/2000/svg"
 width="350.000000pt" height="350.000000pt" viewBox="0 0 350.000000 350.000000"
 preserveAspectRatio="xMidYMid meet">
<metadata>
Created by potrace 1.14, written by Peter Selinger 2001-2017
</metadata>
<g transform="translate(0.000000,350.000000) scale(0.100000,-0.100000)"
fill="#000000" stroke="none">
<path d="M755 3490 c3 -5 18 -10 32 -10 32 0 28 5 -10 14 -19 4 -26 3 -22 -4z"/>
<path d="M823 3487 c-2 -4 19 -7 47 -6 28 1 53 6 56 10 2 4 -19 7 -47 6 -28
-1 -53 -5 -56 -10z"/>
<path d="M970 3490 c0 -5 5 -10 11 -10 5 0 7 5 4 10 -3 6 -8 10 -11 10 -2 0
-4 -4 -4 -10z"/>
<path d="M1061 3491 c-14 -4 24 -8 84 -9 60 -1 107 0 104 2 -8 8 -163 14 -188
7z"/>
<path d="M2596 3441 c-13 -45 -16 -67 -8 -88 6 -17 6 -38 0 -53 -5 -14 -7 -32
-5 -42 3 -9 -1 -42 -9 -74 -7 -32 -11 -61 -8 -65 6 -11 -16 -109 -26 -109 -4
0 -11 -19 -15 -42 -11 -60 -11 -72 -3 -83 3 -6 1 -54 -6 -108 -7 -54 -9 -94
-5 -90 4 5 10 24 12 43 2 19 2 1 0 -40 -3 -41 -8 -76 -11 -77 -4 -2 -6 -29 -4
-60 2 -32 -1 -53 -5 -47 -4 6 -16 13 -25 17 -25 9 -161 102 -175 118 -6 8 -13
37 -17 64 -11 95 -24 139 -45 156 -19 16 -20 24 -14 120 5 94 9 107 34 140 16
20 26 39 23 42 -3 3 4 8 16 12 12 4 19 12 16 20 -3 8 4 32 15 54 17 36 25 71
16 71 -31 0 -177 -68 -177 -82 0 -5 -4 -8 -9 -8 -8 0 -31 -15 -179 -118 -34
-23 -62 -40 -62 -37 0 14 60 70 114 106 42 28 52 38 35 37 -13 -2 -27 -7 -30
-11 -3 -5 -43 -11 -88 -14 -78 -6 -81 -5 -81 16 0 29 -14 26 -39 -6 l-20 -28
-1 38 c0 20 4 37 10 37 5 0 7 7 4 15 -12 30 -21 14 -34 -57 -12 -70 -40 -125
-55 -110 -3 4 -5 2 -4 -3 2 -6 0 -25 -4 -44 -6 -27 -11 -32 -27 -28 -10 3 -21
0 -23 -7 -3 -7 -10 -4 -19 8 -11 13 -22 17 -39 13 -22 -6 -26 -2 -35 25 -5 17
-14 33 -19 35 -14 4 -17 -35 -4 -58 6 -11 5 -27 -1 -43 -14 -37 -32 -33 -26 5
6 37 -1 59 -19 59 -8 0 -11 8 -8 21 4 13 -2 27 -17 41 -13 12 -20 28 -17 39 3
11 2 19 -3 19 -4 0 -10 -24 -14 -52 -5 -43 -3 -55 11 -65 14 -11 14 -15 1 -44
l-15 -31 -7 39 c-17 98 -16 96 -47 89 -21 -4 -35 0 -49 14 -11 11 -30 20 -42
20 -21 0 -21 0 -2 -15 17 -13 17 -14 2 -15 -10 0 -24 12 -31 27 l-14 27 -8
-23 c-5 -16 -13 -21 -25 -18 -11 3 -20 1 -22 -4 -2 -5 -26 -9 -55 -10 -44 -2
-56 -7 -73 -29 -19 -25 -24 -26 -108 -24 -48 1 -94 4 -102 7 -20 7 -120 25
-120 21 0 -8 74 -46 113 -58 25 -7 59 -23 75 -35 17 -11 35 -21 41 -21 18 0
54 -23 82 -52 14 -16 35 -28 47 -28 25 0 52 -10 52 -19 0 -4 -13 -17 -30 -29
l-30 -22 -40 20 c-49 25 -56 25 -83 -1 -12 -11 -32 -25 -44 -30 -32 -12 -29
-25 7 -32 48 -10 34 -47 -18 -47 -9 0 -30 7 -46 15 -38 20 -38 20 -21 -21 18
-44 21 -129 4 -118 -8 5 -10 -1 -7 -20 3 -15 -1 -41 -10 -58 -11 -24 -12 -32
-2 -38 7 -4 9 -13 5 -19 -5 -8 1 -10 21 -5 22 6 26 4 21 -9 -3 -8 1 -21 9 -27
8 -7 14 -19 14 -26 0 -7 14 -20 30 -29 30 -15 40 -35 19 -35 -6 0 -9 -6 -6
-12 2 -8 16 -12 31 -10 16 2 36 -4 47 -14 16 -14 19 -15 19 -2 0 15 39 38 66
38 8 0 13 4 10 9 -3 4 5 6 17 4 14 -3 29 2 36 11 16 19 15 19 -67 5 -53 -9
-66 -9 -73 2 -15 24 -10 39 14 39 16 0 18 3 8 9 -16 10 -1 43 27 61 14 9 12
10 -13 5 l-30 -5 27 17 27 17 -27 13 c-15 7 -19 11 -9 8 10 -3 26 2 35 11 15
15 15 16 -3 11 -22 -7 -59 11 -62 30 -2 7 14 10 47 9 28 -2 50 0 50 4 0 16 65
33 131 34 39 0 62 3 53 7 -17 5 -17 7 3 17 12 7 29 12 38 12 9 0 32 12 50 26
32 24 34 29 30 72 -2 26 -4 50 -5 54 0 4 -6 5 -14 2 -9 -4 -15 8 -20 42 -10
77 -9 84 18 84 18 0 26 -7 29 -22 l4 -23 8 24 c8 23 9 23 22 6 12 -17 13 -16
14 16 1 23 6 10 15 -40 15 -83 24 -101 24 -48 0 56 25 47 44 -15 9 -29 20 -60
23 -68 3 -8 7 -21 9 -28 5 -25 14 -26 15 -1 0 13 3 18 6 12 2 -7 13 -13 22
-13 13 0 17 6 14 23 -3 15 3 26 17 35 19 11 24 11 34 -4 10 -13 26 -17 73 -15
53 1 61 -1 66 -19 3 -11 11 -20 19 -20 10 0 9 3 -2 10 -10 7 -11 10 -2 10 7 0
21 -6 32 -12 15 -10 24 -10 38 -2 14 9 22 8 37 -2 10 -8 27 -12 37 -8 19 6 25
-10 8 -21 -5 -3 -15 -16 -22 -28 -9 -19 -9 -20 3 -11 19 15 55 23 65 15 16
-11 53 -91 45 -96 -5 -2 -13 -24 -19 -48 -10 -39 -16 -45 -49 -55 -38 -11
-107 -22 -166 -27 -18 -2 -35 -3 -40 -4 -4 -1 -12 -13 -17 -27 -6 -14 -14 -23
-20 -19 -14 9 -50 -32 -49 -57 0 -13 6 -41 12 -62 l12 -39 14 27 c17 30 35 29
39 -2 4 -26 20 -28 37 -5 9 12 26 17 54 17 22 -1 39 3 38 8 -1 6 17 17 40 26
28 11 48 26 60 49 10 18 21 33 25 33 10 0 3 -62 -9 -86 -6 -10 -8 -25 -6 -31
3 -7 -1 -13 -8 -13 -7 0 -10 -3 -7 -6 4 -3 2 -18 -2 -34 -10 -35 -5 -41 27
-29 28 10 144 97 156 116 4 6 14 19 22 27 8 8 15 19 15 25 0 6 10 15 21 22 21
11 22 10 17 -33 -8 -73 -63 -167 -142 -243 -43 -43 -86 -95 -76 -95 4 0 19 10
34 21 15 12 29 19 32 16 3 -3 3 -40 -1 -83 -5 -53 -10 -72 -17 -61 -7 14 -15
12 -65 -15 -31 -17 -79 -48 -107 -69 -81 -62 -106 -72 -140 -60 l-29 12 24 26
24 26 -25 -13 c-32 -16 -42 -32 -27 -42 18 -11 5 -17 -57 -29 -47 -8 -65 -8
-96 5 -56 22 -202 56 -243 56 l-36 0 -3 -56 -3 -55 -33 43 c-18 23 -42 69 -54
101 -18 51 -29 65 -72 93 -104 69 -202 141 -232 169 -38 36 -124 172 -124 196
0 9 -9 27 -20 40 l-20 24 -24 -29 c-13 -16 -55 -83 -92 -149 -38 -67 -82 -144
-99 -172 -16 -28 -43 -74 -60 -104 -16 -29 -51 -79 -76 -111 -36 -47 -49 -72
-58 -122 -7 -35 -19 -85 -28 -112 -12 -37 -17 -91 -17 -215 -1 -208 25 -417
80 -641 31 -130 32 -141 18 -176 -17 -40 -17 -44 -4 -44 6 0 10 8 10 18 0 14
2 14 9 3 7 -11 3 -20 -11 -33 -26 -22 -42 -23 -34 -3 4 13 2 13 -14 5 -23 -12
-34 -29 -25 -38 3 -3 10 0 16 8 7 12 11 12 17 3 6 -9 18 -6 47 14 31 21 37 22
31 8 -4 -11 0 -22 11 -30 21 -15 22 -14 -41 -48 -33 -19 -46 -22 -42 -12 9 25
-8 17 -27 -12 -15 -24 -17 -25 -12 -5 4 12 3 22 -2 22 -15 0 -47 -64 -48 -95
0 -16 -9 -48 -20 -69 -14 -28 -17 -40 -8 -43 8 -3 9 -12 3 -28 -8 -21 -4 -27
45 -59 29 -20 75 -45 102 -57 62 -27 187 -59 228 -59 35 0 45 16 45 73 0 15 3
27 8 27 4 -1 27 -25 51 -55 31 -39 50 -55 67 -55 24 0 24 1 9 30 -8 16 -15 35
-14 42 0 7 9 -6 19 -29 l19 -43 301 0 c206 0 300 3 300 11 0 6 -5 20 -11 32
-7 13 -11 66 -10 137 1 89 -4 131 -19 185 -64 219 -112 467 -130 670 -19 199
4 514 42 603 l15 34 6 -54 c8 -67 34 -146 70 -216 l28 -53 37 22 c102 62 155
108 204 177 11 16 35 28 74 37 65 15 71 14 137 -31 37 -26 143 -74 161 -74 7
0 26 63 26 85 0 12 11 32 25 45 l25 23 0 -25 c0 -23 40 -99 105 -198 13 -19
28 -52 35 -74 7 -21 20 -46 30 -56 9 -9 25 -39 35 -66 10 -27 33 -87 51 -134
63 -164 99 -411 83 -575 -5 -49 -9 -95 -9 -101 0 -6 -12 -17 -27 -23 -31 -13
-70 -64 -82 -107 -4 -16 -13 -30 -19 -30 -7 -1 -17 -2 -23 -3 -15 -2 -41 -69
-37 -100 3 -23 0 -26 -24 -23 -19 2 -28 -2 -28 -12 0 -7 -7 -17 -15 -20 -9 -3
-15 -14 -13 -23 2 -14 -3 -17 -22 -15 -14 1 -26 7 -28 12 -7 20 -28 8 -44 -26
l-16 -36 376 4 c406 5 425 7 566 67 167 72 320 232 387 405 57 148 59 174 59
790 0 409 -3 565 -11 568 -6 2 -15 22 -18 43 -4 23 -12 39 -19 37 -7 -1 -17 9
-24 22 -6 14 -17 27 -25 30 -14 6 -73 -28 -73 -42 0 -12 -44 -58 -62 -65 -9
-3 -29 -24 -43 -47 -14 -22 -30 -40 -35 -40 -6 0 -10 -5 -10 -10 0 -6 -12 -29
-26 -51 -22 -35 -24 -45 -15 -71 15 -41 15 -41 -16 -35 -37 7 -146 -11 -155
-26 -5 -8 -8 -6 -8 6 0 20 -26 23 -33 5 -4 -10 -6 -10 -6 0 -1 17 -21 15 -21
-2 0 -8 -6 -18 -12 -22 -7 -4 -10 -4 -6 0 3 4 -3 29 -14 54 -11 26 -26 73 -34
105 -8 31 -30 88 -49 127 -19 38 -35 79 -35 91 0 22 -49 107 -83 144 -26 28
-44 65 -48 97 -4 26 3 30 116 85 66 32 121 58 122 58 1 0 6 25 11 55 5 30 13
64 17 75 6 17 5 17 -5 5 -9 -12 -11 -9 -6 16 2 17 10 80 16 140 8 69 19 123
31 146 16 29 19 55 18 125 -2 102 10 225 21 218 10 -6 0 125 -11 147 -15 29 0
45 88 89 46 24 86 46 89 50 5 9 -120 64 -192 84 -33 9 -115 19 -189 22 l-130
5 -19 -61z m-451 -341 c3 -5 -1 -10 -10 -10 -9 0 -13 5 -10 10 3 6 8 10 10 10
2 0 7 -4 10 -10z m-745 -41 c0 -17 -4 -28 -10 -24 -5 3 -10 17 -10 31 0 13 5
24 10 24 6 0 10 -14 10 -31z m474 -40 c-12 -13 -20 -16 -22 -9 -3 7 2 16 9 21
25 16 32 9 13 -12z m195 7 c9 -11 9 -15 -1 -20 -7 -3 -3 -4 9 -2 12 2 30 -2
40 -10 20 -15 11 -17 -36 -8 -17 4 -31 13 -31 20 0 8 -4 14 -10 14 -5 0 -10 5
-10 10 0 15 26 12 39 -4z m-643 -35 c-7 -11 -46 -2 -46 10 0 4 8 12 17 18 19
10 40 -10 29 -28z m-89 -3 c-3 -7 -5 -2 -5 12 0 14 2 19 5 13 2 -7 2 -19 0
-25z m360 -22 c-4 -9 -11 -16 -17 -16 -11 0 -14 33 -3 44 11 10 26 -11 20 -28z
m-387 -1 c0 -8 -2 -15 -4 -15 -2 0 -6 7 -10 15 -3 8 -1 15 4 15 6 0 10 -7 10
-15z m1231 -58 c-13 -13 -15 1 -4 30 7 17 8 17 11 -1 2 -10 -1 -23 -7 -29z
m379 -117 l-11 -25 6 25 c2 14 6 48 7 75 l2 50 3 -50 c2 -28 -1 -62 -7 -75z
m-833 -13 c-12 -28 -27 -36 -27 -15 0 12 31 50 37 45 1 -2 -3 -15 -10 -30z
m19 -42 c-11 -8 -22 -12 -25 -9 -6 6 19 24 34 24 6 -1 1 -7 -9 -15z m60 -14
c-6 -9 -46 -22 -46 -15 0 3 10 9 23 14 29 11 29 11 23 1z m79 -63 c-4 -42 -28
-79 -42 -64 -5 5 -3 11 3 13 8 3 6 15 -6 41 -22 44 -18 52 20 52 28 0 29 -2
25 -42z m-65 -8 c0 -5 -5 -10 -11 -10 -5 0 -7 5 -4 10 3 6 8 10 11 10 2 0 4
-4 4 -10z m-1070 -22 c0 -4 -13 -8 -30 -8 -16 0 -30 4 -30 8 0 5 14 9 30 9 17
0 30 -4 30 -9z m-165 -198 c3 -5 -1 -10 -10 -10 -9 0 -13 5 -10 10 3 6 8 10
10 10 2 0 7 -4 10 -10z m2455 -479 c0 -6 -4 -13 -10 -16 -5 -3 -10 1 -10 9 0
9 5 16 10 16 6 0 10 -4 10 -9z m-835 -494 c17 0 40 4 52 8 18 6 25 2 34 -19 7
-14 18 -26 26 -26 18 0 72 -59 80 -87 3 -14 0 -30 -6 -36 -6 -6 -11 -19 -11
-29 0 -10 -7 -18 -15 -18 -8 0 -15 -9 -15 -19 0 -11 -5 -21 -11 -23 -14 -5 -3
-48 12 -48 5 0 9 13 9 28 0 29 31 72 52 72 15 0 48 -30 48 -44 0 -6 -24 -37
-54 -69 -53 -56 -54 -58 -44 -95 6 -20 16 -49 24 -63 7 -15 10 -29 7 -33 -12
-12 -42 -6 -52 11 -9 17 -10 17 -28 0 -21 -18 -53 -23 -53 -8 0 5 11 12 24 15
32 8 38 28 24 81 -11 40 -15 44 -54 54 -36 9 -41 14 -37 31 5 17 11 20 34 15
19 -4 36 -1 51 9 18 13 19 16 5 16 -9 0 -17 5 -17 10 0 6 -7 10 -15 10 -9 0
-18 7 -22 16 -3 8 -12 13 -21 9 -17 -6 -95 70 -89 88 2 7 0 25 -4 40 -6 23 -6
27 5 18 10 -8 17 -6 29 7 14 16 14 17 -9 18 -32 2 -38 9 -29 31 5 10 7 24 6
32 -2 10 3 11 16 5 10 -4 32 -8 48 -7z m312 -290 c-4 6 11 3 32 -8 34 -16 42
-26 55 -73 17 -57 20 -134 8 -201 -9 -50 -56 -85 -115 -85 -38 0 -39 1 -32 28
4 15 11 63 15 107 6 63 8 71 10 35 2 -30 4 -37 7 -20 3 14 17 35 31 47 15 13
33 28 40 34 7 6 11 18 8 26 -3 8 -6 21 -6 29 0 10 -6 11 -24 4 -17 -6 -26 -5
-30 3 -2 7 -5 5 -5 -4 -1 -9 -8 -19 -16 -23 -12 -4 -15 5 -15 48 0 59 6 71 28
53 11 -8 14 -8 9 0z m-1699 -259 c22 -24 42 -69 42 -94 0 -8 -10 -25 -23 -38
-34 -34 -84 -25 -95 18 -10 38 0 91 24 117 22 24 26 24 52 -3z m-73 -250 c-9
-29 -23 -70 -32 -90 -13 -32 -14 -53 -5 -152 7 -73 8 -126 2 -147 -10 -35 -56
-89 -76 -89 -14 0 -33 -58 -35 -105 0 -16 -5 -39 -10 -50 -8 -18 -4 61 7 117
2 15 -4 18 -36 18 -67 0 -115 26 -154 83 -32 49 -53 106 -47 134 1 7 -10 33
-24 57 l-26 44 22 36 c27 46 79 73 176 92 104 20 148 18 170 -6 18 -19 19 -18
47 58 32 84 48 84 21 0z m-700 -327 c-3 -6 -13 -11 -21 -11 -8 0 -14 -4 -14
-10 0 -5 5 -10 12 -10 6 0 9 -2 7 -5 -3 -2 -15 -2 -27 2 -22 5 -22 6 10 29 31
23 46 25 33 5z m162 -133 c-3 -7 -5 -2 -5 12 0 14 2 19 5 13 2 -7 2 -19 0 -25z"/>
<path d="M2750 1211 c-5 -11 -10 -28 -10 -38 1 -16 3 -15 20 6 21 25 26 51 10
51 -5 0 -14 -9 -20 -19z"/>
<path d="M940 3480 c0 -5 5 -10 11 -10 5 0 7 5 4 10 -3 6 -8 10 -11 10 -2 0
-4 -4 -4 -10z"/>
<path d="M2357 3388 c-7 -5 1 -8 21 -8 17 0 32 4 32 8 0 10 -37 10 -53 0z"/>
<path d="M2230 3374 c0 -8 5 -12 10 -9 6 3 10 10 10 16 0 5 -4 9 -10 9 -5 0
-10 -7 -10 -16z"/>
<path d="M2160 3370 c0 -5 5 -10 11 -10 5 0 7 5 4 10 -3 6 -8 10 -11 10 -2 0
-4 -4 -4 -10z"/>
<path d="M2075 3360 c-3 -5 1 -10 10 -10 9 0 13 5 10 10 -3 6 -8 10 -10 10 -2
0 -7 -4 -10 -10z"/>
<path d="M1950 3350 c0 -5 5 -10 10 -10 6 0 10 5 10 10 0 6 -4 10 -10 10 -5 0
-10 -4 -10 -10z"/>
<path d="M1860 3338 c0 -4 7 -8 15 -8 8 0 15 4 15 8 0 5 -7 9 -15 9 -8 0 -15
-4 -15 -9z"/>
<path d="M2120 3330 c0 -5 5 -10 10 -10 6 0 10 5 10 10 0 6 -4 10 -10 10 -5 0
-10 -4 -10 -10z"/>
<path d="M1515 3320 c-3 -5 1 -18 10 -27 14 -13 21 -14 36 -5 10 7 22 12 26
12 5 0 3 -4 -3 -8 -17 -10 -22 -74 -6 -79 6 -3 12 2 12 10 0 9 13 18 33 22 17
4 35 12 39 18 4 6 10 8 14 5 3 -4 -1 -14 -10 -23 -28 -29 -16 -62 18 -49 15 6
53 74 55 99 1 6 -9 11 -21 12 -44 5 -98 4 -107 -2 -5 -3 -13 -1 -16 5 -4 6
-16 8 -26 5 -11 -4 -26 -2 -34 5 -9 8 -15 8 -20 0z"/>
<path d="M2050 3326 c0 -2 7 -6 15 -10 8 -3 15 -1 15 4 0 6 -7 10 -15 10 -8 0
-15 -2 -15 -4z"/>
<path d="M1815 3300 c3 -5 12 -7 20 -3 21 7 19 13 -6 13 -11 0 -18 -4 -14 -10z"/>
<path d="M1763 3275 c-9 -25 4 -29 17 -6 7 15 7 21 0 21 -6 0 -13 -7 -17 -15z"/>
<path d="M2130 3270 c-13 -8 -12 -10 3 -10 9 0 17 5 17 10 0 12 -1 12 -20 0z"/>
<path d="M1885 3260 c3 -5 8 -10 11 -10 2 0 4 5 4 10 0 6 -5 10 -11 10 -5 0
-7 -4 -4 -10z"/>
<path d="M2020 3260 c0 -5 5 -10 11 -10 5 0 7 5 4 10 -3 6 -8 10 -11 10 -2 0
-4 -4 -4 -10z"/>
<path d="M2085 3260 c3 -5 10 -10 16 -10 5 0 9 5 9 10 0 6 -7 10 -16 10 -8 0
-12 -4 -9 -10z"/>
<path d="M1480 3246 c0 -9 5 -16 10 -16 6 0 10 4 10 9 0 6 -4 13 -10 16 -5 3
-10 -1 -10 -9z"/>
<path d="M1410 3180 c0 -5 5 -10 10 -10 6 0 10 5 10 10 0 6 -4 10 -10 10 -5 0
-10 -4 -10 -10z"/>
<path d="M2343 3153 c15 -2 37 -2 50 0 12 2 0 4 -28 4 -27 0 -38 -2 -22 -4z"/>
<path d="M121 3134 c0 -11 3 -14 6 -6 3 7 2 16 -1 19 -3 4 -6 -2 -5 -13z"/>
<path d="M1715 3140 c3 -5 13 -10 21 -10 8 0 14 5 14 10 0 6 -9 10 -21 10 -11
0 -17 -4 -14 -10z"/>
<path d="M1545 3130 c3 -5 10 -10 16 -10 5 0 9 5 9 10 0 6 -7 10 -16 10 -8 0
-12 -4 -9 -10z"/>
<path d="M1666 3095 c-9 -25 -7 -32 9 -39 12 -4 15 0 12 19 -4 32 -13 40 -21
20z"/>
<path d="M131 3084 c0 -11 3 -14 6 -6 3 7 2 16 -1 19 -3 4 -6 -2 -5 -13z"/>
<path d="M2961 3074 c0 -11 3 -14 6 -6 3 7 2 16 -1 19 -3 4 -6 -2 -5 -13z"/>
<path d="M2951 3024 c0 -11 3 -14 6 -6 3 7 2 16 -1 19 -3 4 -6 -2 -5 -13z"/>
<path d="M152 2995 c0 -11 4 -31 8 -45 6 -20 8 -21 8 -5 0 11 -4 31 -8 45 -6
20 -8 21 -8 5z"/>
<path d="M2953 2960 c0 -25 2 -35 4 -22 2 12 2 32 0 45 -2 12 -4 2 -4 -23z"/>
<path d="M172 2895 c0 -11 4 -31 8 -45 6 -20 8 -21 8 -5 0 11 -4 31 -8 45 -6
20 -8 21 -8 5z"/>
<path d="M191 2804 c0 -11 3 -14 6 -6 3 7 2 16 -1 19 -3 4 -6 -2 -5 -13z"/>
<path d="M202 2760 c0 -14 4 -36 8 -50 6 -20 8 -21 8 -5 0 11 -4 34 -8 50 -7
27 -8 27 -8 5z"/>
<path d="M3230 2742 c-33 -16 -35 -20 -32 -62 3 -41 32 -141 53 -182 6 -10 16
-14 29 -11 16 4 19 2 14 -12 -11 -28 16 -35 56 -15 51 26 67 47 52 68 -6 10
-25 44 -41 77 -16 33 -39 74 -51 92 l-21 32 24 6 c14 4 35 1 47 -5 12 -6 33
-14 48 -16 22 -4 24 -3 13 10 -30 36 -134 46 -191 18z m45 -212 c-3 -5 -12
-10 -18 -10 -7 0 -6 4 3 10 19 12 23 12 15 0z"/>
<path d="M1800 2681 c0 -6 5 -13 10 -16 6 -3 10 1 10 9 0 9 -4 16 -10 16 -5 0
-10 -4 -10 -9z"/>
<path d="M222 2660 c0 -14 2 -19 5 -12 2 6 2 18 0 25 -3 6 -5 1 -5 -13z"/>
<path d="M232 2605 c0 -16 2 -22 5 -12 2 9 2 23 0 30 -3 6 -5 -1 -5 -18z"/>
<path d="M54 2572 c-30 -21 -42 -132 -14 -132 5 0 5 13 0 29 -6 22 -4 33 6 42
8 6 14 19 14 28 0 9 5 22 12 29 13 13 0 16 -18 4z"/>
<path d="M241 2554 c0 -11 3 -14 6 -6 3 7 2 16 -1 19 -3 4 -6 -2 -5 -13z"/>
<path d="M251 2514 c0 -11 3 -14 6 -6 3 7 2 16 -1 19 -3 4 -6 -2 -5 -13z"/>
<path d="M1850 2510 c0 -5 4 -10 9 -10 6 0 13 5 16 10 3 6 -1 10 -9 10 -9 0
-16 -4 -16 -10z"/>
<path d="M135 2469 c-11 -17 1 -21 15 -4 8 9 8 15 2 15 -6 0 -14 -5 -17 -11z"/>
<path d="M261 2464 c0 -11 3 -14 6 -6 3 7 2 16 -1 19 -3 4 -6 -2 -5 -13z"/>
<path d="M1326 2412 c-3 -2 -26 -5 -53 -6 -35 -1 -48 -5 -49 -16 -1 -24 -27
-74 -44 -85 -8 -5 -24 -11 -35 -12 -11 -2 -32 -8 -47 -14 -15 -6 -32 -8 -39
-3 -9 5 -10 1 -6 -17 4 -13 7 -32 7 -42 0 -14 5 -17 19 -12 16 5 18 2 14 -15
-4 -14 -1 -20 12 -20 9 0 29 -8 43 -19 32 -22 117 -37 127 -21 3 5 19 10 35
10 16 0 32 5 35 10 10 15 -14 40 -39 41 -18 1 -18 2 -3 6 11 3 16 11 13 19 -4
10 4 14 32 15 20 0 46 4 57 9 15 7 10 9 -25 10 l-45 2 39 9 c48 11 65 24 19
14 -21 -4 -44 -1 -67 10 -41 20 -73 62 -58 77 7 7 12 3 17 -12 9 -28 69 -54
104 -45 27 7 61 32 61 46 0 9 -118 67 -124 61z"/>
<path d="M928 2363 c7 -3 16 -2 19 1 4 3 -2 6 -13 5 -11 0 -14 -3 -6 -6z"/>
<path d="M1454 2298 c-16 -25 -12 -35 11 -30 18 3 24 -1 28 -19 3 -13 4 -6 4
16 -2 41 -26 60 -43 33z"/>
<path d="M1118 2123 c6 -2 18 -2 25 0 6 3 1 5 -13 5 -14 0 -19 -2 -12 -5z"/>
<path d="M406 2082 c-3 -5 18 -7 47 -5 75 6 81 11 15 12 -31 1 -59 -3 -62 -7z"/>
<path d="M1811 2064 c0 -11 3 -14 6 -6 3 7 2 16 -1 19 -3 4 -6 -2 -5 -13z"/>
<path d="M1840 2041 c0 -6 -9 -11 -20 -11 -10 0 -24 -9 -30 -20 -7 -13 -21
-20 -41 -20 -30 0 -37 -8 -41 -49 -3 -19 2 -24 25 -26 15 -2 27 0 27 4 0 14
72 42 84 33 6 -5 19 -7 29 -3 17 6 17 8 -4 35 -16 20 -19 30 -10 35 9 6 8 11
-4 21 -10 8 -15 9 -15 1z"/>
<path d="M2055 2030 c-3 -5 -1 -10 4 -10 6 0 11 5 11 10 0 6 -2 10 -4 10 -3 0
-8 -4 -11 -10z"/>
<path d="M1934 1994 c-18 -14 -18 -15 4 -4 12 6 22 13 22 15 0 8 -5 6 -26 -11z"/>
<path d="M1680 1950 c0 -5 5 -10 10 -10 6 0 10 5 10 10 0 6 -4 10 -10 10 -5 0
-10 -4 -10 -10z"/>
<path d="M3072 1738 c3 -7 13 -15 22 -16 12 -3 17 1 14 10 -3 7 -13 15 -22 16
-12 3 -17 -1 -14 -10z"/>
<path d="M3090 1660 c0 -5 5 -10 11 -10 5 0 7 5 4 10 -3 6 -8 10 -11 10 -2 0
-4 -4 -4 -10z"/>
<path d="M1811 1266 c-15 -18 -3 -46 19 -46 24 0 33 15 25 40 -7 23 -28 26
-44 6z"/>
<path d="M1914 695 c-8 -19 3 -35 25 -35 26 0 44 23 29 38 -17 17 -47 15 -54
-3z"/>
<path d="M1940 225 c-10 -12 -7 -15 13 -20 14 -4 34 -5 44 -3 14 3 12 7 -13
21 -28 14 -34 15 -44 2z"/>
<path d="M2040 10 c0 -5 5 -10 10 -10 6 0 10 5 10 10 0 6 -4 10 -10 10 -5 0
-10 -4 -10 -10z"/>
</g>
</svg>
